<?xml version="1.0" encoding="utf-8"?>
<!-- Generator: Adobe Illustrator 23.0.3, SVG Export Plug-In . SVG Version: 6.00 Build 0)  -->
<svg version="1.1" id="Слой_1" xmlns="http://www.w3.org/2000/svg" xmlns:xlink="http://www.w3.org/1999/xlink" x="0px" y="0px"
	 viewBox="0 0 120 120" style="enable-background:new 0 0 120 120;" xml:space="preserve">
<style type="text/css">
	.st0{fill:#3D0075;}
	.st1{fill:#FFD400;}
	.st2{fill:#FFCE00;}
</style>
<circle class="st0" cx="60" cy="60" r="60"/>
<path class="st1" d="M158,73"/>
<g>
	<path class="st2" d="M54.2,82.2L76.6,105c11.2-4.1,20.4-12.3,25.9-22.8H54.2z"/>
	<path class="st2" d="M82.2,65.9l22.8-22.4C101,32.2,92.7,23,82.2,17.5V65.9z"/>
	<path class="st2" d="M16.2,40.3C13.5,46.3,12,53,12,60c0,5.1,0.8,10.1,2.3,14.7l33.9-34.4H16.2z"/>
	<path class="st2" d="M79.7,48.2v-32C73.7,13.5,67,12,60,12c-5,0-9.8,0.8-14.3,2.2L79.7,48.2z"/>
	<path class="st2" d="M108,60c0-4.8-0.7-9.4-2-13.8L71.8,79.7h32C106.5,73.7,108,67,108,60z"/>
	<path class="st2" d="M40.3,71.8v32c6,2.7,12.7,4.2,19.7,4.2c4.8,0,9.5-0.7,13.9-2L40.3,71.8z"/>
	<path class="st2" d="M37.8,54.6L15.3,77.4c4.2,10.9,12.3,19.8,22.5,25.1V54.6z"/>
	<path class="st2" d="M65.6,37.8L43,15.1c-11,4.2-20.1,12.3-25.5,22.7H65.6z"/>
</g>
</svg>
