<?xml version="1.0" encoding="utf-8"?>
<!-- Generator: Adobe Illustrator 18.0.0, SVG Export Plug-In . SVG Version: 6.00 Build 0)  -->
<!DOCTYPE svg PUBLIC "-//W3C//DTD SVG 1.1//EN" "http://www.w3.org/Graphics/SVG/1.1/DTD/svg11.dtd">
<svg version="1.1" id="Слой_1" xmlns="http://www.w3.org/2000/svg" xmlns:xlink="http://www.w3.org/1999/xlink" x="0px" y="0px"
	 viewBox="0 90 612 612" enable-background="new 0 90 612 612" xml:space="preserve">
<circle fill="#3D0075" cx="306" cy="396" r="306"/>
<g>
	<path fill="#FFFFFF" d="M340.6,528.7h-52.5V330.9c-19.2,17.9-41.8,31.2-67.8,39.8v-47.6c13.7-4.5,28.6-13,44.6-25.5
		c16.1-12.5,27.1-27.1,33.1-43.8h42.6V528.7z"/>
</g>
<g>
	<path fill="none" d="M468.5,439.2v-255c-5.9-4.5-12-8.9-18.3-12.9v138.3L271.8,131.2c-7.7,1-15.3,2.3-22.7,3.9l97.9,98.4v0H94.2
		c-4.5,5.9-8.9,12-12.9,18.3h138.3L41.5,432.5c1.1,7.8,2.5,15.5,4.2,23l97.8-99.1v251.3c5.9,4.5,12,8.9,18.3,12.9V482.4l175.6,178.7
		c7.9-0.9,15.6-2.2,23.3-3.8l-97.1-98.8h254.3c4.5-5.9,8.9-12,12.9-18.3H392.4l178.8-175.1c-0.9-7.8-2.1-15.5-3.7-23.1L468.5,439.2z
		"/>
	<path fill="#FFCE00" d="M360.7,657.4c63.6-13.2,118.9-49.1,157.2-98.8H263.5L360.7,657.4z"/>
	<path fill="#FFCE00" d="M567.5,342c-13.1-63.9-49.1-119.4-99-157.8v255L567.5,342z"/>
	<path fill="#FFCE00" d="M81.3,251.8C54.5,293.4,39,342.9,39,396c0,12.4,0.9,24.6,2.5,36.5l178.1-180.7H81.3z"/>
	<path fill="#FFCE00" d="M450.2,171.3C408.6,144.5,359.1,129,306,129c-11.6,0-23,0.7-34.2,2.2l178.4,178.4V171.3z"/>
	<path fill="#FFCE00" d="M530.7,540.2C557.5,498.6,573,449.1,573,396c0-10.5-0.6-20.8-1.8-30.9L392.4,540.2H530.7z"/>
	<path fill="#FFCE00" d="M161.8,620.7C203.4,647.5,252.9,663,306,663c10.6,0,21.1-0.6,31.4-1.8L161.8,482.4V620.7z"/>
	<path fill="#FFCE00" d="M45.7,455.6c14,61.6,49.3,115,97.8,152.3V356.5L45.7,455.6z"/>
	<path fill="#FFCE00" d="M347,233.5l-97.9-98.4c-62.7,13.6-117.1,49.2-154.9,98.4L347,233.5L347,233.5z"/>
</g>
</svg>
