<?xml version="1.0" encoding="utf-8"?>
<!-- Generator: Adobe Illustrator 27.3.1, SVG Export Plug-In . SVG Version: 6.00 Build 0)  -->
<svg version="1.1" id="Слой_1" xmlns="http://www.w3.org/2000/svg" xmlns:xlink="http://www.w3.org/1999/xlink" x="0px" y="0px"
	 viewBox="0 0 6887.04 1162.2" style="enable-background:new 0 0 6887.04 1162.2;" xml:space="preserve">
<style type="text/css">
	.st0{fill:#FFFFFF;}
	.st1{fill:#FEC016;}
</style>
<g>
	<path class="st0" d="M268.53,863.31h-64.65c-68.8,0-119.97-18.22-153.53-54.7C16.78,772.15,0,718.69,0,648.23V410.78
		c0-70.43,16.78-123.89,50.35-160.37c33.57-36.46,84.73-54.7,153.53-54.7h64.65v-49.73h136.75v49.73h64.65
		c68.78,0,119.97,18.24,153.53,54.7c33.57,36.48,50.35,89.94,50.35,160.37v237.45c0,70.45-16.78,123.91-50.35,160.37
		c-33.57,36.48-84.75,54.7-153.53,54.7h-64.65v152.91H268.53V863.31z M203.88,320.03c-21.56,0-38.13,5.81-49.73,17.4
		c-11.62,11.62-17.4,33.16-17.4,64.65v254.85c0,31.51,5.79,53.05,17.4,64.65c11.6,11.62,28.17,17.4,49.73,17.4h64.65V320.03H203.88z
		 M405.28,320.03v418.96h64.65c21.54,0,38.11-5.79,49.73-17.4c11.6-11.6,17.41-33.14,17.41-64.65V402.08
		c0-31.49-5.81-53.03-17.41-64.65c-11.62-11.6-28.19-17.4-49.73-17.4H405.28z"/>
	<path class="st0" d="M1995.85,145.98h422.69V270.3h-142.97v745.92h-136.75V270.3h-142.97V145.98z"/>
	<path class="st0" d="M2468.26,359.9c0-68.86,17.81-121.73,53.46-158.61c35.63-36.86,87.03-55.3,154.17-55.3
		c67.14,0,118.52,18.44,154.17,55.3c35.63,36.88,53.46,89.75,53.46,158.61v442.41c0,68.88-17.83,121.75-53.46,158.61
		c-35.65,36.88-87.03,55.3-154.17,55.3c-67.14,0-118.54-18.42-154.17-55.3c-35.65-36.86-53.46-89.73-53.46-158.61V359.9z
		 M2605.02,810.82c0,30.8,6.41,52.47,19.27,65.02c12.84,12.57,30.03,18.84,51.6,18.84c21.54,0,38.74-6.27,51.6-18.84
		c12.84-12.55,19.27-34.22,19.27-65.02V351.39c0-30.78-6.43-52.45-19.27-65.02c-12.86-12.55-30.05-18.84-51.6-18.84
		c-21.56,0-38.76,6.29-51.6,18.84c-12.86,12.57-19.27,34.24-19.27,65.02V810.82z"/>
	<path class="st0" d="M3365.9,689.27v113.03c0,68.88-17.21,121.75-51.6,158.61c-34.4,36.88-85.16,55.3-152.3,55.3
		c-67.14,0-117.92-18.42-152.3-55.3c-34.4-36.86-51.6-89.73-51.6-158.61V359.9c0-68.86,17.19-121.73,51.6-158.61
		c34.38-36.86,85.16-55.3,152.3-55.3c67.14,0,117.9,18.44,152.3,55.3c34.38,36.88,51.6,89.75,51.6,158.61v82.65h-129.3v-91.16
		c0-30.78-6.43-52.45-19.27-65.02c-12.86-12.55-30.05-18.84-51.6-18.84c-21.56,0-38.76,6.29-51.6,18.84
		c-12.86,12.57-19.27,34.24-19.27,65.02v459.43c0,30.8,6.41,52.26,19.27,64.42c12.84,12.15,30.03,18.23,51.6,18.23
		c21.54,0,38.74-6.08,51.6-18.23c12.84-12.15,19.27-33.61,19.27-64.42V689.27H3365.9z"/>
	<path class="st0" d="M3894.26,1016.22h-138l-23.62-157.89H3564.8l-23.62,157.89h-125.57l139.25-870.24h200.17L3894.26,1016.22z
		 M3582.2,740.23h131.79l-65.89-440.09L3582.2,740.23z"/>
	<path class="st0" d="M4340.6,269.95h-159.14v528.09c0,43.81-5.4,79.76-16.16,107.85c-10.78,28.11-25.29,50.21-43.51,66.32
		c-18.24,16.12-39.16,27.48-62.79,34.09c-23.62,6.62-48.29,9.92-73.97,9.92c-12.43,0-23.62,0-33.57,0c-9.95,0-20.73-0.83-32.33-2.48
		V889.78c7.46,0.83,15.33,1.24,23.62,1.24c8.28,0,16.16,0,23.62,0c21.54,0,39.98-5.36,55.33-16.11c15.33-10.73,23-33.04,23-66.94
		V145.98h432.66v867.76H4340.6V269.95z"/>
	<path class="st0" d="M4564.38,359.9c0-68.86,17.81-121.73,53.46-158.61c35.63-36.86,87.03-55.3,154.16-55.3
		c67.14,0,118.52,18.44,154.16,55.3c35.63,36.88,53.46,89.75,53.46,158.61v442.41c0,68.88-17.83,121.75-53.46,158.61
		c-35.65,36.88-87.03,55.3-154.16,55.3c-67.14,0-118.54-18.42-154.16-55.3c-35.65-36.86-53.46-89.73-53.46-158.61V359.9z
		 M4701.14,810.82c0,30.8,6.41,52.47,19.27,65.02c12.84,12.57,30.03,18.84,51.59,18.84c21.54,0,38.74-6.27,51.6-18.84
		c12.84-12.55,19.27-34.22,19.27-65.02V351.39c0-30.78-6.43-52.45-19.27-65.02c-12.86-12.55-30.05-18.84-51.6-18.84
		c-21.56,0-38.75,6.29-51.59,18.84c-12.86,12.57-19.27,34.24-19.27,65.02V810.82z"/>
	<path class="st0" d="M5203.41,1016.22h-136.76V145.98h136.76v372.96h155.41V145.98h139.25v870.24h-139.25V643.26h-155.41V1016.22z"
		/>
	<g>
		<path class="st1" d="M1696.3,688.52l212.79-210.19c-25.5-142.92-103.26-267.73-212.79-354V688.52z"/>
		<path class="st1" d="M1665.06,400.77V101.4C1571.71,37.44,1458.76,0,1337.06,0c-21.95,0-43.6,1.26-64.92,3.63L1665.06,400.77z"/>
		<path class="st1" d="M857.36,253.09c-63.96,93.35-101.4,206.3-101.4,328.01c0,24.5,1.53,48.63,4.48,72.33l396.81-400.33H857.36z"
			/>
		<path class="st1" d="M1816.76,909.11c63.95-93.36,101.4-206.3,101.4-328.01c0-21.73-1.23-43.18-3.56-64.3l-397.17,392.3H1816.76z"
			/>
		<path class="st1" d="M1009.05,761.24v299.57c93.35,63.96,206.3,101.4,328.01,101.4c22.89,0,45.45-1.37,67.65-3.94L1009.05,761.24z
			"/>
		<path class="st1" d="M1444.1,221.86L1233.67,9.18c-142.66,25.62-267.24,103.3-353.39,212.68H1444.1z"/>
		<path class="st1" d="M1231.65,940.35l211.44,212.17c141.55-26.1,265.13-103.47,350.74-212.17H1231.65z"/>
		<path class="st1" d="M977.81,478.5l-211.3,213.17c26.91,139.65,103.77,261.51,211.3,346.2V478.5z"/>
	</g>
	<path class="st0" d="M5908.26,386.73v629.49h-123.4V145.98h171.67l140.58,520.64V145.98h301.52v101.94h-180.27v768.3H6078.2
		L5908.26,386.73z M6568.18,914.28v101.94h-301.52V914.28H6568.18z M6267.72,560.45c0-61.21,12.86-108.58,38.61-142.08
		s63.12-50.27,112.15-50.27c49.01,0,86.38,16.77,112.13,50.27s38.63,80.86,38.63,142.08V620c0,62.05-12.88,109.62-38.63,142.71
		s-63.12,49.63-112.13,49.63c-49.02,0-86.4-16.53-112.15-49.63s-38.61-80.66-38.61-142.71V560.45z M6367.52,627.31
		c0,27.26,4.34,46.68,13.04,58.25s21.34,17.34,37.93,17.34c16.56,0,29.21-5.77,37.91-17.34s13.06-30.98,13.06-58.25v-74.34
		c0-27.26-4.36-46.46-13.06-57.61s-21.34-16.73-37.91-16.73c-16.58,0-29.22,5.58-37.93,16.73s-13.04,30.35-13.04,57.61V627.31z"/>
	<path class="st0" d="M6644.53,255.43c26.52,0,48.29-2.9,65.29-8.7c17-5.8,30.88-13.68,41.66-23.64
		c10.76-9.94,19.47-21.54,26.1-34.82c6.64-13.26,12.44-27.36,17.42-42.28h92.03v870.24h-136.28V352.01h-106.23V255.43z"/>
</g>
</svg>
